<svg width="24" height="24" viewBox="0 0 24 24" fill="none" xmlns="http://www.w3.org/2000/svg">
<path fill-rule="evenodd" clip-rule="evenodd" d="M12.048 17.232H13.008C13.008 17.232 13.296 17.184 13.44 17.04C13.584 16.896 13.584 16.608 13.584 16.608C13.584 16.608 13.584 15.36 14.16 15.168C14.736 14.976 15.504 16.416 16.272 16.944C16.848 17.376 17.28 17.28 17.28 17.28L19.392 17.232C19.392 17.232 20.496 17.184 19.968 16.272C19.92 16.224 19.68 15.648 18.384 14.448C17.04 13.2 17.232 13.44 18.816 11.28C19.776 9.984 20.16 9.216 20.064 8.832C19.968 8.496 19.248 8.592 19.248 8.592H16.848C16.848 8.592 16.656 8.544 16.56 8.64C16.416 8.736 16.368 8.88 16.368 8.88C16.368 8.88 15.984 9.888 15.504 10.752C14.448 12.528 14.016 12.624 13.872 12.528C13.488 12.288 13.584 11.472 13.584 10.944C13.584 9.216 13.872 8.496 13.056 8.304C12.816 8.256 12.624 8.208 11.952 8.208C11.088 8.208 10.368 8.208 9.984 8.4C9.696 8.544 9.504 8.832 9.648 8.832C9.792 8.832 10.176 8.928 10.368 9.168C10.56 9.6 10.56 10.32 10.56 10.32C10.56 10.32 10.704 12.384 10.224 12.624C9.888 12.816 9.456 12.432 8.496 10.8C8.016 9.984 7.632 9.024 7.632 9.024C7.632 9.024 7.584 8.832 7.44 8.736C7.296 8.64 7.056 8.592 7.056 8.592H4.8C4.8 8.592 4.464 8.592 4.32 8.736C4.224 8.88 4.32 9.12 4.32 9.12C4.32 9.12 6.096 13.248 8.112 15.36C9.984 17.376 12.048 17.232 12.048 17.232Z" fill="white"/>
</svg>
