<svg width="207" height="48" viewBox="0 0 207 48" fill="none" xmlns="http://www.w3.org/2000/svg">
<path d="M77.968 22C77.792 22 77.64 21.944 77.512 21.832C77.384 21.704 77.32 21.544 77.32 21.352V5.848C77.32 5.672 77.384 5.52 77.512 5.392C77.64 5.264 77.792 5.2 77.968 5.2H82.672C82.848 5.2 83 5.264 83.128 5.392C83.256 5.52 83.32 5.672 83.32 5.848V10.888H87.208V5.848C87.208 5.672 87.272 5.52 87.4 5.392C87.528 5.264 87.68 5.2 87.856 5.2H92.56C92.736 5.2 92.888 5.264 93.016 5.392C93.144 5.52 93.208 5.672 93.208 5.848V21.352C93.208 21.528 93.144 21.68 93.016 21.808C92.888 21.936 92.736 22 92.56 22H87.856C87.68 22 87.528 21.936 87.4 21.808C87.272 21.68 87.208 21.528 87.208 21.352V16.168H83.32V21.352C83.32 21.528 83.256 21.68 83.128 21.808C83 21.936 82.848 22 82.672 22H77.968ZM100.707 22C100.531 22 100.379 21.936 100.251 21.808C100.123 21.68 100.059 21.528 100.059 21.352V16.624L94.6591 5.944C94.6271 5.88 94.6111 5.808 94.6111 5.728C94.6111 5.584 94.6591 5.464 94.7551 5.368C94.8671 5.256 94.9951 5.2 95.1391 5.2H99.6511C99.9231 5.2 100.139 5.272 100.299 5.416C100.475 5.544 100.595 5.672 100.659 5.8L103.059 10.624L105.459 5.8C105.523 5.672 105.635 5.544 105.795 5.416C105.971 5.272 106.195 5.2 106.467 5.2H110.979C111.123 5.2 111.243 5.256 111.339 5.368C111.451 5.464 111.507 5.584 111.507 5.728C111.507 5.808 111.491 5.88 111.459 5.944L106.059 16.624V21.352C106.059 21.528 105.995 21.68 105.867 21.808C105.739 21.936 105.587 22 105.411 22H100.707ZM113.546 22C113.37 22 113.218 21.936 113.09 21.808C112.962 21.68 112.898 21.528 112.898 21.352V5.848C112.898 5.672 112.962 5.52 113.09 5.392C113.218 5.264 113.37 5.2 113.546 5.2H120.818C123.058 5.2 124.818 5.696 126.098 6.688C127.394 7.68 128.042 9.144 128.042 11.08C128.042 13 127.402 14.432 126.122 15.376C124.842 16.304 123.074 16.768 120.818 16.768H119.138V21.352C119.138 21.528 119.074 21.68 118.946 21.808C118.818 21.936 118.666 22 118.49 22H113.546ZM120.698 12.328C120.986 12.328 121.242 12.224 121.466 12.016C121.69 11.792 121.802 11.464 121.802 11.032C121.802 10.664 121.714 10.344 121.538 10.072C121.362 9.8 121.082 9.664 120.698 9.664H119.018V12.328H120.698ZM130.468 22C130.292 22 130.14 21.936 130.012 21.808C129.884 21.68 129.82 21.528 129.82 21.352V5.848C129.82 5.672 129.884 5.52 130.012 5.392C130.14 5.264 130.292 5.2 130.468 5.2H142.78C142.956 5.2 143.108 5.264 143.236 5.392C143.364 5.52 143.428 5.672 143.428 5.848V9.232C143.428 9.408 143.364 9.56 143.236 9.688C143.108 9.816 142.956 9.88 142.78 9.88H135.58V11.392H142.252C142.428 11.392 142.58 11.456 142.708 11.584C142.836 11.712 142.9 11.864 142.9 12.04V15.16C142.9 15.336 142.836 15.488 142.708 15.616C142.58 15.744 142.428 15.808 142.252 15.808H135.58V17.32H142.972C143.148 17.32 143.3 17.384 143.428 17.512C143.556 17.64 143.62 17.792 143.62 17.968V21.352C143.62 21.528 143.556 21.68 143.428 21.808C143.3 21.936 143.148 22 142.972 22H130.468ZM146.476 22C146.3 22 146.148 21.936 146.02 21.808C145.892 21.68 145.828 21.528 145.828 21.352V5.848C145.828 5.672 145.892 5.52 146.02 5.392C146.148 5.264 146.3 5.2 146.476 5.2H153.58C155.884 5.2 157.684 5.72 158.98 6.76C160.276 7.784 160.924 9.208 160.924 11.032C160.924 12.072 160.692 12.992 160.228 13.792C159.764 14.576 159.132 15.224 158.332 15.736L161.284 21.208C161.332 21.304 161.356 21.392 161.356 21.472C161.356 21.616 161.3 21.744 161.188 21.856C161.092 21.952 160.972 22 160.828 22H155.908C155.62 22 155.388 21.936 155.212 21.808C155.052 21.664 154.94 21.512 154.876 21.352L152.812 16.768H151.828V21.352C151.828 21.528 151.764 21.68 151.636 21.808C151.508 21.936 151.356 22 151.18 22H146.476ZM153.58 12.208C153.932 12.208 154.204 12.096 154.396 11.872C154.588 11.632 154.684 11.336 154.684 10.984C154.684 10.632 154.588 10.328 154.396 10.072C154.22 9.8 153.948 9.664 153.58 9.664H151.828V12.208H153.58ZM163.796 22C163.62 22 163.468 21.936 163.34 21.808C163.212 21.68 163.148 21.528 163.148 21.352V5.848C163.148 5.672 163.212 5.52 163.34 5.392C163.468 5.264 163.62 5.2 163.796 5.2H168.692C168.868 5.2 169.02 5.264 169.148 5.392C169.276 5.52 169.34 5.672 169.34 5.848V21.352C169.34 21.528 169.276 21.68 169.148 21.808C169.02 21.936 168.868 22 168.692 22H163.796ZM179.568 22.24C177.168 22.24 175.256 21.688 173.832 20.584C172.408 19.48 171.648 17.872 171.552 15.76C171.536 15.328 171.528 14.632 171.528 13.672C171.528 12.696 171.536 11.984 171.552 11.536C171.6 10.16 171.96 8.976 172.632 7.984C173.32 6.992 174.256 6.24 175.44 5.728C176.624 5.216 178 4.96 179.568 4.96C181.136 4.96 182.512 5.216 183.696 5.728C184.88 6.24 185.808 6.992 186.48 7.984C187.168 8.976 187.536 10.16 187.584 11.536C187.616 12.432 187.632 13.144 187.632 13.672C187.632 14.2 187.616 14.896 187.584 15.76C187.488 17.872 186.728 19.48 185.304 20.584C183.88 21.688 181.968 22.24 179.568 22.24ZM179.568 17.56C180.112 17.56 180.536 17.4 180.84 17.08C181.16 16.76 181.328 16.272 181.344 15.616C181.376 14.688 181.392 14.008 181.392 13.576C181.392 13.112 181.376 12.448 181.344 11.584C181.328 10.928 181.16 10.44 180.84 10.12C180.52 9.8 180.096 9.64 179.568 9.64C179.04 9.64 178.616 9.8 178.296 10.12C177.976 10.44 177.808 10.928 177.792 11.584C177.776 12.016 177.768 12.68 177.768 13.576C177.768 14.472 177.776 15.152 177.792 15.616C177.808 16.272 177.968 16.76 178.272 17.08C178.592 17.4 179.024 17.56 179.568 17.56ZM190.445 22C190.269 22 190.117 21.936 189.989 21.808C189.861 21.68 189.797 21.528 189.797 21.352V5.848C189.797 5.672 189.861 5.52 189.989 5.392C190.117 5.264 190.269 5.2 190.445 5.2H194.237C194.685 5.2 195.013 5.384 195.221 5.752L199.277 12.4V5.848C199.277 5.672 199.341 5.52 199.469 5.392C199.597 5.264 199.749 5.2 199.925 5.2H204.269C204.445 5.2 204.597 5.264 204.725 5.392C204.853 5.52 204.917 5.672 204.917 5.848V21.352C204.917 21.528 204.853 21.68 204.725 21.808C204.597 21.936 204.445 22 204.269 22H200.477C200.205 22 199.997 21.944 199.853 21.832C199.709 21.72 199.589 21.592 199.493 21.448L195.437 15.328V21.352C195.437 21.528 195.373 21.68 195.245 21.808C195.117 21.936 194.965 22 194.789 22H190.445Z" fill="white"/>
<path d="M77.62 43C77.5 43 77.398 42.964 77.314 42.892C77.242 42.808 77.206 42.706 77.206 42.586V41.29C77.206 41.17 77.242 41.074 77.314 41.002C77.398 40.918 77.5 40.876 77.62 40.876H78.916C79.036 40.876 79.138 40.918 79.222 41.002C79.306 41.074 79.348 41.17 79.348 41.29V42.586C79.348 42.706 79.306 42.808 79.222 42.892C79.138 42.964 79.036 43 78.916 43H77.62ZM85.4714 43.18C84.1874 43.18 83.1794 42.82 82.4474 42.1C81.7274 41.368 81.3434 40.348 81.2954 39.04L81.2774 38.32L81.2954 37.6C81.3434 36.292 81.7274 35.278 82.4474 34.558C83.1794 33.826 84.1874 33.46 85.4714 33.46C86.3354 33.46 87.0674 33.616 87.6674 33.928C88.2674 34.24 88.7114 34.624 88.9994 35.08C89.2994 35.536 89.4614 35.992 89.4854 36.448C89.4974 36.568 89.4614 36.664 89.3774 36.736C89.2934 36.808 89.1914 36.844 89.0714 36.844H88.2074C88.0874 36.844 87.9974 36.82 87.9374 36.772C87.8774 36.724 87.8174 36.628 87.7574 36.484C87.5534 35.908 87.2654 35.5 86.8934 35.26C86.5214 35.008 86.0534 34.882 85.4894 34.882C84.7454 34.882 84.1514 35.116 83.7074 35.584C83.2754 36.04 83.0414 36.742 83.0054 37.69L82.9874 38.338L83.0054 38.95C83.0414 39.91 83.2754 40.618 83.7074 41.074C84.1394 41.53 84.7334 41.758 85.4894 41.758C86.0534 41.758 86.5214 41.638 86.8934 41.398C87.2654 41.146 87.5534 40.732 87.7574 40.156C87.8174 40.012 87.8774 39.916 87.9374 39.868C87.9974 39.808 88.0874 39.778 88.2074 39.778H89.0714C89.1914 39.778 89.2934 39.82 89.3774 39.904C89.4614 39.976 89.4974 40.072 89.4854 40.192C89.4614 40.636 89.2994 41.092 88.9994 41.56C88.7114 42.016 88.2674 42.4 87.6674 42.712C87.0794 43.024 86.3474 43.18 85.4714 43.18ZM92.055 43C91.935 43 91.833 42.964 91.749 42.892C91.677 42.808 91.641 42.706 91.641 42.586V30.634C91.641 30.514 91.677 30.418 91.749 30.346C91.833 30.262 91.935 30.22 92.055 30.22H92.901C93.021 30.22 93.117 30.262 93.189 30.346C93.273 30.418 93.315 30.514 93.315 30.634V42.586C93.315 42.706 93.273 42.808 93.189 42.892C93.117 42.964 93.021 43 92.901 43H92.055ZM99.492 43.18C98.352 43.18 97.47 42.814 96.846 42.082C96.222 41.338 95.91 40.354 95.91 39.13V34.054C95.91 33.934 95.946 33.838 96.018 33.766C96.102 33.682 96.204 33.64 96.324 33.64H97.224C97.344 33.64 97.44 33.682 97.512 33.766C97.596 33.838 97.638 33.934 97.638 34.054V39.04C97.638 40.828 98.418 41.722 99.978 41.722C100.734 41.722 101.334 41.488 101.778 41.02C102.222 40.54 102.444 39.88 102.444 39.04V34.054C102.444 33.934 102.48 33.838 102.552 33.766C102.636 33.682 102.738 33.64 102.858 33.64H103.758C103.878 33.64 103.974 33.682 104.046 33.766C104.118 33.838 104.154 33.934 104.154 34.054V42.586C104.154 42.706 104.118 42.808 104.046 42.892C103.974 42.964 103.878 43 103.758 43H102.912C102.792 43 102.69 42.964 102.606 42.892C102.534 42.808 102.498 42.706 102.498 42.586V41.794C102.162 42.25 101.754 42.598 101.274 42.838C100.794 43.066 100.2 43.18 99.492 43.18ZM111.454 43.18C110.158 43.18 109.174 42.73 108.502 41.83V42.586C108.502 42.706 108.46 42.808 108.376 42.892C108.304 42.964 108.208 43 108.088 43H107.26C107.14 43 107.038 42.964 106.954 42.892C106.882 42.808 106.846 42.706 106.846 42.586V30.634C106.846 30.514 106.882 30.418 106.954 30.346C107.038 30.262 107.14 30.22 107.26 30.22H108.142C108.262 30.22 108.358 30.262 108.43 30.346C108.502 30.418 108.538 30.514 108.538 30.634V34.774C109.246 33.898 110.218 33.46 111.454 33.46C112.702 33.46 113.644 33.874 114.28 34.702C114.916 35.518 115.258 36.544 115.306 37.78C115.318 37.912 115.324 38.092 115.324 38.32C115.324 38.548 115.318 38.728 115.306 38.86C115.258 40.108 114.916 41.14 114.28 41.956C113.644 42.772 112.702 43.18 111.454 43.18ZM111.076 41.722C111.928 41.722 112.546 41.458 112.93 40.93C113.326 40.402 113.542 39.706 113.578 38.842C113.59 38.722 113.596 38.548 113.596 38.32C113.596 36.052 112.756 34.918 111.076 34.918C110.272 34.918 109.654 35.182 109.222 35.71C108.79 36.238 108.562 36.856 108.538 37.564L108.52 38.266L108.538 38.95C108.574 39.706 108.796 40.36 109.204 40.912C109.624 41.452 110.248 41.722 111.076 41.722Z" fill="#FFA800"/>
<rect opacity="0.1" x="13" width="48" height="48" rx="24" fill="white"/>
<circle cx="15" cy="23" r="15" fill="#FFA800"/>
<circle cx="37" cy="23" r="10" fill="#FFA800"/>
<circle cx="37" cy="23" r="7" fill="#9C6700"/>
</svg>
